<?xml version="1.0" standalone="no"?>
<!DOCTYPE svg PUBLIC "-//W3C//DTD SVG 20010904//EN"
 "http://www.w3.org/TR/2001/REC-SVG-20010904/DTD/svg10.dtd">
<svg version="1.0" xmlns="http://www.w3.org/2000/svg"
 width="1000.000000pt" height="1000.000000pt" viewBox="0 0 1000.000000 1000.000000"
 preserveAspectRatio="xMidYMid meet">
<metadata>
Created by potrace 1.11, written by Peter Selinger 2001-2013
</metadata>
<g transform="translate(0.000000,1000.000000) scale(0.100000,-0.100000)"
fill="#000000" stroke="none">
<path d="M870 4998 l0 -3018 900 0 900 0 2 561 3 560 37 -48 c20 -26 49 -61
63 -78 14 -16 43 -50 63 -74 20 -24 46 -54 57 -66 11 -13 31 -38 45 -55 14
-18 36 -45 50 -60 33 -38 57 -66 105 -125 22 -27 47 -56 55 -64 8 -9 33 -39
55 -66 65 -81 60 -79 91 -37 16 20 38 46 49 58 11 11 34 37 50 58 17 21 40 50
53 65 13 14 35 42 50 61 15 19 34 41 42 50 8 9 33 38 55 64 22 27 45 54 50 60
6 6 33 38 60 71 50 60 71 85 119 140 l25 30 1 -547 0 -548 1345 0 1345 0 0
300 0 300 400 0 400 0 0 -300 0 -300 900 0 900 0 0 2500 0 2500 -900 0 -900 0
0 -1300 0 -1300 -400 0 -400 0 0 1300 0 1300 -883 0 -883 0 -34 -42 c-87 -106
-235 -283 -241 -288 -5 -5 -400 -477 -424 -508 -5 -7 -17 -21 -26 -30 -8 -9
-37 -44 -65 -77 -27 -33 -51 -62 -54 -65 -3 -3 -43 -50 -89 -105 -46 -55 -104
-124 -130 -154 -25 -30 -53 -63 -61 -75 -8 -11 -19 -25 -26 -31 -6 -5 -56 -64
-110 -129 -54 -66 -128 -153 -162 -195 -35 -41 -70 -84 -78 -96 -14 -19 -15
-19 -50 20 -19 22 -48 55 -62 74 -15 19 -32 39 -37 45 -6 6 -80 94 -164 196
-85 102 -159 190 -165 195 -6 6 -33 37 -59 69 -26 33 -68 82 -91 110 -24 28
-90 107 -147 176 -57 69 -111 132 -119 141 -40 43 -519 611 -552 654 -67 87
-819 984 -925 1103 l-33 37 0 -3017z m349 2140 c22 -29 51 -66 65 -81 13 -16
39 -46 56 -67 18 -22 39 -48 48 -58 10 -11 35 -41 57 -68 22 -27 67 -80 100
-119 33 -38 139 -164 235 -280 96 -115 177 -212 180 -215 3 -3 63 -75 135
-160 71 -85 132 -157 135 -160 3 -3 30 -34 59 -70 30 -36 61 -72 70 -81 9 -9
30 -33 46 -53 17 -21 41 -51 55 -67 14 -15 36 -42 50 -59 14 -17 36 -43 50
-59 14 -15 40 -46 58 -69 19 -23 41 -50 50 -60 24 -27 84 -100 125 -149 19
-23 41 -49 48 -56 8 -8 21 -23 29 -34 55 -69 107 -130 121 -143 8 -8 20 -22
25 -32 5 -9 27 -36 49 -60 22 -24 57 -64 78 -90 21 -26 43 -53 50 -60 7 -7 23
-28 36 -46 l23 -33 21 24 c12 14 36 41 52 62 17 20 39 47 50 60 11 12 49 58
85 101 36 43 72 85 80 94 8 8 31 36 50 60 19 25 44 55 55 66 11 12 27 30 35
40 8 11 38 46 65 79 28 33 58 68 67 80 9 11 27 31 39 45 11 14 38 45 58 70 20
25 44 54 55 65 10 11 30 36 45 55 14 19 33 42 41 50 29 31 106 123 162 193 13
16 30 36 39 45 9 9 89 105 178 212 89 107 172 206 185 220 48 54 264 313 284
342 13 17 43 18 678 18 l664 0 0 -1300 0 -1300 700 0 700 0 0 1300 0 1300 600
0 600 0 0 -2200 0 -2200 -600 0 -600 0 0 300 0 300 -700 0 -700 0 0 -300 0
-300 -1045 0 -1045 0 0 813 -1 812 -22 -26 c-12 -14 -48 -57 -79 -96 -31 -39
-63 -76 -70 -84 -19 -20 -68 -78 -108 -129 -19 -24 -86 -105 -148 -179 -63
-75 -130 -156 -150 -180 -21 -24 -68 -80 -105 -125 -38 -45 -87 -103 -110
-131 -23 -27 -53 -62 -67 -78 l-25 -28 -120 143 c-66 79 -122 145 -125 148 -3
3 -61 73 -129 155 -69 83 -130 155 -136 160 -6 6 -28 33 -50 60 -22 28 -43 52
-46 55 -3 3 -40 48 -83 100 -43 52 -86 103 -95 112 -9 10 -36 42 -61 72 l-45
54 -3 -819 -2 -819 -600 0 -600 0 0 2455 c0 1350 2 2455 5 2455 2 0 22 -24 44
-52z"/>
<path d="M5340 4490 l0 -1900 300 0 300 0 0 300 0 300 1000 0 1000 0 0 -300 0
-300 300 0 300 0 0 1900 0 1900 -300 0 -300 0 0 -1300 0 -1300 -1000 0 -1000
0 0 1300 0 1300 -300 0 -300 0 0 -1900z"/>
<path d="M5009 6338 c-37 -48 -558 -669 -593 -708 -12 -14 -40 -47 -61 -75
-22 -27 -45 -54 -51 -60 -6 -5 -33 -37 -60 -70 -27 -33 -53 -65 -59 -71 -5 -6
-28 -33 -50 -59 -53 -65 -160 -192 -194 -231 -14 -17 -44 -52 -66 -79 -37 -44
-84 -101 -139 -165 -11 -14 -66 -79 -121 -145 -55 -66 -102 -122 -105 -125 -3
-3 -61 -72 -129 -154 l-124 -149 -26 30 c-14 17 -107 127 -205 244 -194 230
-480 571 -508 604 -26 31 -308 368 -326 390 -32 38 -277 330 -298 355 -21 24
-139 165 -172 205 -29 34 -176 208 -200 236 -12 14 -29 34 -37 45 -13 17 -14
-221 -15 -1873 l0 -1893 300 0 300 0 0 1068 0 1067 26 -30 c14 -16 40 -47 57
-69 18 -21 37 -43 42 -50 6 -6 46 -54 90 -106 44 -52 82 -97 85 -100 3 -3 48
-57 100 -120 52 -63 97 -117 100 -120 3 -3 151 -180 329 -395 178 -214 331
-398 340 -408 16 -17 27 -6 207 210 104 125 199 239 210 253 12 14 63 75 114
135 124 149 114 137 210 250 47 56 103 123 125 149 38 46 238 284 311 371 l34
40 0 -1072 0 -1073 300 0 300 0 0 1895 c0 1042 -1 1895 -3 1895 -2 0 -19 -19
-38 -42z"/>
</g>
</svg>
